<svg width="27" height="27" viewBox="0 0 27 27" fill="none" xmlns="http://www.w3.org/2000/svg">
<path d="M22.8514 0.585785C23.6325 -0.195264 24.8985 -0.195264 25.6796 0.585785C26.4605 1.36684 26.4606 2.63291 25.6796 3.41391L15.9608 13.1327L25.6796 22.8514C26.4604 23.6325 26.4605 24.8986 25.6796 25.6795C24.8986 26.4605 23.6325 26.4604 22.8514 25.6795L13.1327 15.9608L3.41394 25.6795C2.63294 26.4605 1.36687 26.4604 0.585815 25.6795C-0.195226 24.8985 -0.195213 23.6325 0.585815 22.8514L10.3046 13.1327L0.585815 3.41391C-0.195233 2.63286 -0.195233 1.36683 0.585815 0.585785C1.36687 -0.195187 2.63292 -0.195238 3.41394 0.585785L13.1327 10.3045L22.8514 0.585785Z" fill="black"/>
</svg>
