<svg width="45" height="45" viewBox="0 0 45 45" fill="none" xmlns="http://www.w3.org/2000/svg">
<path d="M22.627 0.00683594C34.5455 0.309073 44.1143 10.0662 44.1143 22.0576L44.1074 22.627C43.8051 34.5453 34.0488 44.114 22.0576 44.1143L21.4883 44.1074C9.75876 43.8104 0.304354 34.3564 0.00683594 22.627L0 22.0576C0 9.87567 9.87567 0 22.0576 0L22.627 0.00683594ZM22.0576 3C11.5325 3 3 11.5325 3 22.0576C3.00035 32.5824 11.5327 41.1143 22.0576 41.1143C32.5823 41.114 41.1139 32.5822 41.1143 22.0576C41.1143 11.5327 32.5825 3.00027 22.0576 3ZM27.7725 13.5137C28.5535 12.7328 29.8196 12.7327 30.6006 13.5137C31.3815 14.2947 31.3814 15.5608 30.6006 16.3418L24.8857 22.0566L30.6006 27.7715C31.3816 28.5525 31.3816 29.8195 30.6006 30.6006C29.8195 31.3816 28.5525 31.3816 27.7715 30.6006L22.0566 24.8857L16.3428 30.6006C15.5618 31.3816 14.2947 31.3816 13.5137 30.6006C12.7326 29.8195 12.7326 28.5525 13.5137 27.7715L19.2275 22.0566L13.5137 16.3418C12.7328 15.5608 12.7328 14.2947 13.5137 13.5137C14.2947 12.7327 15.5607 12.7328 16.3418 13.5137L22.0566 19.2285L27.7725 13.5137Z" fill="black"/>
</svg>
