<svg width="46" height="35" viewBox="0 0 46 35" fill="none" xmlns="http://www.w3.org/2000/svg">
<path d="M43.6387 14.7217C44.467 14.7219 45.1387 15.3934 45.1387 16.2217V28.8193C45.1385 31.8567 42.676 34.3192 39.6387 34.3193H5.5C2.46252 34.3193 0.000132974 31.8568 0 28.8193V16.2217C0 15.3933 0.671573 14.7217 1.5 14.7217C2.32839 14.7217 3 15.3933 3 16.2217V28.8193C3.00013 30.1999 4.11937 31.3193 5.5 31.3193H39.6387C41.0192 31.3192 42.1385 30.1998 42.1387 28.8193V16.2217C42.1387 15.3933 42.8102 14.7217 43.6387 14.7217ZM39.6387 0C42.6761 0.000184623 45.1386 2.46258 45.1387 5.5V9.33691C45.1387 11.6776 43.6568 13.7618 41.4463 14.5312L41.3086 14.5801L36.5752 16.2266C35.7928 16.4988 34.9373 16.0851 34.665 15.3027C34.393 14.5205 34.8068 13.6659 35.5889 13.3936L40.3223 11.7461L40.46 11.6982C41.4647 11.3485 42.1387 10.4008 42.1387 9.33691V5.5C42.1386 4.11944 41.0192 3.00018 39.6387 3H5.5C4.11942 3.00013 3.00004 4.1194 3 5.5V9.35547C3.00007 10.4137 3.66679 11.3569 4.66406 11.7109L20.8799 17.4648C21.8442 17.8069 22.8969 17.8098 23.8633 17.4736L25.3945 16.9404L28.125 15.9902C28.9073 15.7182 29.7629 16.1318 30.0352 16.9141C30.3073 17.6963 29.8934 18.5518 29.1113 18.8242L26.3799 19.7744L24.8496 20.3066C23.2387 20.8672 21.4845 20.8622 19.877 20.292L3.66113 14.5391C1.46661 13.7605 7.12486e-05 11.684 0 9.35547V5.5C3.86127e-05 2.46255 2.46257 0.000127548 5.5 0H39.6387Z" fill="black"/>
</svg>
