<svg width="45" height="44" viewBox="0 0 45 44" fill="none" xmlns="http://www.w3.org/2000/svg">
<path d="M19.1162 1.0496C21.1603 -0.350116 23.8549 -0.34995 25.8984 1.05058L42.3887 12.3533C44.0209 13.472 44.9971 15.3237 44.9971 17.3025V35.3875L44.9863 35.7986C44.7721 40.0255 41.2772 43.3874 36.9971 43.3875H8L7.58789 43.3767C3.49756 43.1691 0.218054 39.889 0.0107422 35.7986L0 35.3875V17.3035C2.05799e-05 15.4476 0.858472 13.7035 2.31152 12.5711L2.61035 12.3533L19.1162 1.0496ZM24.2021 3.52518C23.1804 2.8251 21.8335 2.82544 20.8115 3.52518L4.30469 14.8279C3.48818 15.3872 3.00002 16.3138 3 17.3035V35.3875C3.00026 38.1486 5.23884 40.3874 8 40.3875H36.9971C39.7582 40.3874 41.9968 38.1486 41.9971 35.3875V17.3025C41.9971 16.3131 41.5085 15.3873 40.6924 14.8279L24.2021 3.52518ZM28.96 31.7469C29.7881 31.7421 30.4637 32.4099 30.4688 33.2381C30.4737 34.0664 29.8058 34.7417 28.9775 34.7469L16.0381 34.825C15.2097 34.83 14.5333 34.1622 14.5283 33.3338C14.5234 32.5055 15.1912 31.8301 16.0195 31.825L28.96 31.7469Z" fill="black"/>
</svg>
