<svg width="45" height="45" viewBox="0 0 45 45" fill="none" xmlns="http://www.w3.org/2000/svg">
<path d="M22.627 0.00683594C34.5457 0.308941 44.1143 10.0661 44.1143 22.0576L44.1074 22.627C43.8051 34.5454 34.0489 44.1141 22.0576 44.1143L21.4883 44.1074C9.75886 43.8102 0.304345 34.3563 0.00683594 22.627L0 22.0576C0 9.87575 9.87579 0.00013608 22.0576 0L22.627 0.00683594ZM22.0576 3C11.5326 3.00014 3 11.5326 3 22.0576C3.00035 32.5823 11.5329 41.1141 22.0576 41.1143C32.5824 41.1141 41.1139 32.5823 41.1143 22.0576C41.1143 11.5326 32.5826 3.00014 22.0576 3ZM22.0576 29.9727C23.1622 29.9727 24.0576 30.8681 24.0576 31.9727C24.0574 33.0771 23.1621 33.9727 22.0576 33.9727C20.9532 33.9727 20.0578 33.0771 20.0576 31.9727C20.0576 30.8681 20.953 29.9727 22.0576 29.9727ZM22.0576 8.1416C23.1622 8.1416 24.0576 9.03705 24.0576 10.1416V25.3984C24.0576 26.503 23.1622 27.3984 22.0576 27.3984C20.953 27.3984 20.0576 26.503 20.0576 25.3984V10.1416C20.0576 9.03705 20.9531 8.1416 22.0576 8.1416Z" fill="black"/>
</svg>
