<svg width="46" height="33" viewBox="0 0 46 33" fill="none" xmlns="http://www.w3.org/2000/svg">
<path d="M28.6387 1.53105C33.8039 -1.54109 40.4813 0.155208 43.5538 5.32011C46.6261 10.4854 44.929 17.1638 39.7637 20.2361C35.2233 22.9364 29.5158 21.9508 26.1143 18.1648L3.07329 31.8084C2.3606 32.2303 1.44078 31.9945 1.0186 31.282C0.596523 30.5692 0.832159 29.6485 1.54497 29.2264L3.6729 27.9656L0.210987 22.1453C-0.212442 21.4333 0.0214752 20.5121 0.733448 20.0887C1.44532 19.6655 2.36561 19.8994 2.78911 20.6111L6.25396 26.4373L10.3233 24.0271L8.0938 20.2791C7.67056 19.5671 7.90436 18.6459 8.61626 18.2225C9.328 17.7994 10.2483 18.0335 10.6719 18.7449L12.9043 22.4988L24.4336 15.6736C21.9546 10.6325 23.7272 4.45254 28.6387 1.53105ZM40.9756 6.85429C38.7503 3.11308 33.9132 1.88388 30.1719 4.10917C26.4308 6.33454 25.2016 11.1717 27.4268 14.9129C29.6521 18.6541 34.4892 19.8822 38.2305 17.657C41.9716 15.4317 43.2008 10.5955 40.9756 6.85429Z" fill="black"/>
</svg>
