<svg width="45" height="38" viewBox="0 0 45 38" fill="none" xmlns="http://www.w3.org/2000/svg">
<path d="M9.11523 0.269875C11.5663 -0.526726 14.2428 0.485821 15.5527 2.70542L17.2363 5.55991C18.2601 7.29459 18.2537 9.4495 17.2197 11.1781L12.0977 19.7406C13.8616 21.6951 15.8055 23.4967 17.9121 25.1175C20.0353 26.7511 22.2939 28.1769 24.6553 29.3871L31.4561 22.2914C32.8497 20.8372 34.9265 20.2609 36.8701 20.7894L40.0684 21.6595C42.5553 22.3359 44.2402 24.6485 44.1201 27.223L43.7197 35.7914L43.7158 35.7904C43.642 36.5885 42.9518 37.1917 42.1445 37.1488C32.6814 36.6402 23.594 33.2744 16.083 27.4955C8.5722 21.7166 2.9903 13.7962 0.0732412 4.77964C-0.181667 3.99155 0.250079 3.14606 1.03808 2.89097C1.06433 2.88249 1.09084 2.87548 1.11719 2.86851L9.11523 0.269875ZM36.083 23.6849C35.1996 23.4447 34.2555 23.7065 33.6221 24.3675L27.5244 30.7289C31.7303 32.5139 36.2067 33.6395 40.7969 34.0453L41.123 27.0824C41.1773 25.9125 40.4114 24.8614 39.2812 24.5541L36.083 23.6849ZM12.9687 4.22984C12.3734 3.22111 11.157 2.76053 10.043 3.12241L3.41406 5.27671C4.98894 9.62987 7.23702 13.6859 10.0576 17.307L14.6455 9.63902C15.1155 8.85329 15.1187 7.87285 14.6533 7.08433L12.9687 4.22984Z" fill="black"/>
</svg>
