<svg width="45" height="45" viewBox="0 0 45 45" fill="none" xmlns="http://www.w3.org/2000/svg">
<path d="M22.627 0.00683594C34.5455 0.309073 44.1143 10.0662 44.1143 22.0576L44.1074 22.627C43.8051 34.5453 34.0488 44.114 22.0576 44.1143L21.4883 44.1074C9.75876 43.8104 0.304354 34.3564 0.00683594 22.627L0 22.0576C0 9.87567 9.87567 0 22.0576 0L22.627 0.00683594ZM22.0576 3C11.5325 3 3 11.5325 3 22.0576C3.00035 32.5824 11.5327 41.1143 22.0576 41.1143C32.5823 41.114 41.1139 32.5822 41.1143 22.0576C41.1143 11.5327 32.5825 3.00027 22.0576 3ZM31.4277 14.6904C32.2056 13.9066 33.4718 13.9011 34.2559 14.6787C35.0399 15.4564 35.0448 16.7226 34.2676 17.5068L21.8008 30.0762C20.8186 31.0663 19.2162 31.0617 18.2402 30.0654L12.4141 24.1172C11.6412 23.3281 11.6544 22.062 12.4434 21.2891C13.2325 20.5166 14.4987 20.5294 15.2715 21.3184L20.0322 26.1787L31.4277 14.6904Z" fill="black"/>
</svg>
