<svg width="45" height="44" viewBox="0 0 45 44" fill="none" xmlns="http://www.w3.org/2000/svg">
<path d="M22.9414 0.0136719C28.7632 0.296762 33.3932 4.91847 33.3936 10.5781L33.3789 11.123C33.1677 15.1226 30.6426 18.535 27.0635 20.1533C28.3847 20.4352 29.6812 20.8347 30.9355 21.3516C33.6495 22.4699 36.1164 24.1096 38.1943 26.1768C40.2722 28.2439 41.9209 30.6985 43.0459 33.4004C44.1709 36.1023 44.7499 38.9988 44.75 41.9238C44.75 42.7522 44.0784 43.4238 43.25 43.4238C42.4218 43.4236 41.75 42.7521 41.75 41.9238C41.7499 39.3949 41.2494 36.8905 40.2764 34.5537C39.3033 32.2168 37.8769 30.0922 36.0781 28.3027C34.2794 26.5134 32.1431 25.0938 29.792 24.125C27.4408 23.1562 24.9203 22.6572 22.375 22.6572C19.8297 22.6573 17.3092 23.1562 14.958 24.125C12.6069 25.0938 10.4706 26.5134 8.67188 28.3027C6.87315 30.0921 5.4467 32.2168 4.47363 34.5537C3.50069 36.8905 3.00008 39.395 3 41.9238C3 42.7522 2.32838 43.4238 1.5 43.4238C0.671573 43.4238 0 42.7523 0 41.9238C7.753e-05 38.9988 0.579089 36.1023 1.7041 33.4004C2.82918 30.6984 4.47862 28.244 6.55664 26.1768C8.63469 24.1095 11.1014 22.4699 13.8154 21.3516C15.0696 20.8348 16.3657 20.4352 17.6865 20.1533C13.9461 18.4619 11.3564 14.8106 11.3564 10.5781C11.3569 4.73613 16.2901 0.000134587 22.375 0L22.9414 0.0136719ZM22.375 3C17.8306 3.00013 14.3569 6.50696 14.3564 10.5781C14.3564 14.6496 17.8303 18.1571 22.375 18.1572C26.9197 18.1572 30.3936 14.6496 30.3936 10.5781C30.3931 6.50692 26.9195 3.00007 22.375 3Z" fill="black"/>
</svg>
