<svg width="49" height="44" viewBox="0 0 49 44" fill="none" xmlns="http://www.w3.org/2000/svg">
<path d="M19.8021 2.49988C21.7266 -0.833271 26.5377 -0.833326 28.4622 2.49988L47.5863 35.6239C49.4506 38.8531 47.2512 42.8646 43.6126 43.1122L43.2562 43.1239H5.00813L4.65071 43.1122C1.01262 42.8642 -1.18686 38.8528 0.677079 35.6239L19.8021 2.49988ZM25.8636 3.99988C25.0937 2.66677 23.1695 2.66661 22.3997 3.99988L3.27571 37.1239C2.5061 38.4571 3.46872 40.1237 5.00813 40.1239H43.2562C44.7957 40.1238 45.7574 38.4572 44.9876 37.1239L25.8636 3.99988ZM24.1322 32.5438C25.2367 32.5439 26.1321 33.4393 26.1322 34.5438C26.1322 35.6484 25.2367 36.5438 24.1322 36.5438C23.0276 36.5438 22.1322 35.6484 22.1322 34.5438C22.1322 33.4393 23.0276 32.5438 24.1322 32.5438ZM24.1322 10.7128C25.2366 10.7128 26.1319 11.6084 26.1322 12.7128V27.9696C26.1322 29.0742 25.2367 29.9696 24.1322 29.9696C23.0276 29.9696 22.1322 29.0742 22.1322 27.9696V12.7128C22.1324 11.6084 23.0277 10.7128 24.1322 10.7128Z" fill="black"/>
</svg>
